<?xml version="1.0" encoding="UTF-8" standalone="no"?>
<!-- Created with Inkscape (http://www.inkscape.org/) -->

<svg
   width="100"
   height="100"
   viewBox="0 0 100 100"
   version="1.1"
   id="svg2091"
   xmlns="http://www.w3.org/2000/svg"
   xmlns:svg="http://www.w3.org/2000/svg">
  <defs
     id="defs2088" />
  <g
     id="layer1">
    <path
       fill="#ffffff"
       stroke="#000000"
       stroke-width="2"
       stroke-linecap="round"
       stroke-linejoin="round"
       stroke-miterlimit="10"
       d="m 1,83 v 1 l 1,1 H 3 L 4,84 V 83 L 3,82 H 2 Z"
       id="path8805" />
    <path
       fill="#ffffff"
       stroke="#000000"
       stroke-width="2"
       stroke-linecap="round"
       stroke-linejoin="round"
       stroke-miterlimit="10"
       d="m 1,16 v 1 l 1,1 H 3 L 4,17 V 16 L 3,15 H 2 Z"
       id="path8807" />
    <path
       fill="#ffffff"
       stroke="#000000"
       stroke-width="2"
       stroke-linecap="round"
       stroke-linejoin="round"
       stroke-miterlimit="10"
       d="M 17,1 H 5 L 2,21 V 79 L 5,99 H 17 L 20,79 V 21 Z"
       id="path2620" />
    <path
       fill="#ffffff"
       stroke="#000000"
       stroke-width="2"
       stroke-linecap="round"
       stroke-linejoin="round"
       stroke-miterlimit="10"
       d="m 11,66 v 8 H 2 v -8 z"
       id="path2864" />
    <path
       fill="#ffffff"
       stroke="#000000"
       stroke-width="2"
       stroke-linecap="round"
       stroke-linejoin="round"
       stroke-miterlimit="10"
       d="M 11,70 H 2"
       id="path2866" />
    <path
       fill="#ffffff"
       stroke="#000000"
       stroke-width="2"
       stroke-linecap="round"
       stroke-linejoin="round"
       stroke-miterlimit="10"
       d="m 11,23 v 8 H 2 v -8 z"
       id="path2868" />
    <path
       fill="#ffffff"
       stroke="#000000"
       stroke-width="2"
       stroke-linecap="round"
       stroke-linejoin="round"
       stroke-miterlimit="10"
       d="M 11,27 H 2"
       id="path2870" />
    <path
       fill="#ffffff"
       stroke="#000000"
       stroke-width="2"
       stroke-linecap="round"
       stroke-linejoin="round"
       stroke-miterlimit="10"
       d="m 11,9 h -1 v 4 h 1 z"
       id="path2872" />
    <path
       fill="#ffffff"
       stroke="#000000"
       stroke-width="2"
       stroke-linecap="round"
       stroke-linejoin="round"
       stroke-miterlimit="10"
       d="m 11,17 h -1 v 2 h 1 z"
       id="path2874" />
    <path
       fill="#ffffff"
       stroke="#000000"
       stroke-width="2"
       stroke-linecap="round"
       stroke-linejoin="round"
       stroke-miterlimit="10"
       d="m 11,82 h -1 v 2 h 1 z"
       id="path2966" />
    <path
       fill="#ffffff"
       stroke="#000000"
       stroke-width="2"
       stroke-linecap="round"
       stroke-linejoin="round"
       stroke-miterlimit="10"
       d="m 11,88 h -1 v 4 h 1 z"
       id="path2968" />
    <path
       fill="#ffffff"
       stroke="#000000"
       stroke-width="2"
       stroke-linecap="round"
       stroke-linejoin="round"
       stroke-miterlimit="10"
       d="m 16,21 h -1 v 3 h 1 z"
       id="path3098" />
    <path
       fill="#ffffff"
       stroke="#000000"
       stroke-width="2"
       stroke-linecap="round"
       stroke-linejoin="round"
       stroke-miterlimit="10"
       d="m 16,28 h -1 v 3 h 1 z"
       id="path3100" />
    <path
       fill="#ffffff"
       stroke="#000000"
       stroke-width="2"
       stroke-linecap="round"
       stroke-linejoin="round"
       stroke-miterlimit="10"
       d="m 16,35 h -1 v 3 h 1 z"
       id="path3102" />
    <path
       fill="#ffffff"
       stroke="#000000"
       stroke-width="2"
       stroke-linecap="round"
       stroke-linejoin="round"
       stroke-miterlimit="10"
       d="m 16,42 h -1 v 3 h 1 z"
       id="path3104" />
    <path
       fill="#ffffff"
       stroke="#000000"
       stroke-width="2"
       stroke-linecap="round"
       stroke-linejoin="round"
       stroke-miterlimit="10"
       d="m 16,49 h -1 v 3 h 1 z"
       id="path3106" />
    <path
       fill="#ffffff"
       stroke="#000000"
       stroke-width="2"
       stroke-linecap="round"
       stroke-linejoin="round"
       stroke-miterlimit="10"
       d="m 16,56 h -1 v 3 h 1 z"
       id="path3108" />
    <path
       fill="#ffffff"
       stroke="#000000"
       stroke-width="2"
       stroke-linecap="round"
       stroke-linejoin="round"
       stroke-miterlimit="10"
       d="m 16,63 h -1 v 3 h 1 z"
       id="path3110" />
    <path
       fill="#ffffff"
       stroke="#000000"
       stroke-width="2"
       stroke-linecap="round"
       stroke-linejoin="round"
       stroke-miterlimit="10"
       d="m 16,70 h -1 v 3 h 1 z"
       id="path3112" />
    <path
       fill="#ffffff"
       stroke="#000000"
       stroke-width="2"
       stroke-linecap="round"
       stroke-linejoin="round"
       stroke-miterlimit="10"
       d="m 16,77 h -1 v 3 h 1 z"
       id="path3114" />
    <path
       fill="#ffffff"
       stroke="#000000"
       stroke-width="2"
       stroke-linecap="round"
       stroke-linejoin="round"
       stroke-miterlimit="10"
       d="M 8,35 H 7 v 3 h 1 z"
       id="path3476" />
    <path
       fill="#ffffff"
       stroke="#000000"
       stroke-width="2"
       stroke-linecap="round"
       stroke-linejoin="round"
       stroke-miterlimit="10"
       d="M 8,42 H 7 v 3 h 1 z"
       id="path3478" />
    <path
       fill="#ffffff"
       stroke="#000000"
       stroke-width="2"
       stroke-linecap="round"
       stroke-linejoin="round"
       stroke-miterlimit="10"
       d="M 8,49 H 7 v 3 h 1 z"
       id="path3480" />
    <path
       fill="#ffffff"
       stroke="#000000"
       stroke-width="2"
       stroke-linecap="round"
       stroke-linejoin="round"
       stroke-miterlimit="10"
       d="M 8,56 H 7 v 3 h 1 z"
       id="path3482" />
    <path
       fill="#ffffff"
       stroke="#000000"
       stroke-width="2"
       stroke-linecap="round"
       stroke-linejoin="round"
       stroke-miterlimit="10"
       d="M 3,92 H 2 l -1,1 v 1 l 1,1 h 1 l 1,-1 v -1 z"
       id="path8803" />
    <path
       fill="#ffffff"
       stroke="#000000"
       stroke-width="2"
       stroke-linecap="round"
       stroke-linejoin="round"
       stroke-miterlimit="10"
       d="M 1,6 V 7 L 2,8 H 3 L 4,7 V 6 L 3,5 H 2 Z"
       id="path8809" />
  </g>
</svg>
